<mxfile host="app.diagrams.net" modified="2023-11-10T15:26:48.377Z" agent="Mozilla/5.0 (Macintosh; Intel Mac OS X 10_15_7) AppleWebKit/537.36 (KHTML, like Gecko) Chrome/119.0.0.0 Safari/537.36" etag="qOXZbN_LQU5tv57jNaPq" version="22.0.8" type="device">
  <diagram id="1KyXT9FRuBrQ8Wc7k8tB" name="Page-1">
    <mxGraphModel dx="927" dy="600" grid="1" gridSize="10" guides="1" tooltips="1" connect="1" arrows="1" fold="1" page="1" pageScale="1" pageWidth="827" pageHeight="1169" math="0" shadow="0">
      <root>
        <mxCell id="0" />
        <mxCell id="1" parent="0" />
        <mxCell id="u06xFt2bz2ASWRlQ6E2f-1" value="" style="rounded=0;whiteSpace=wrap;html=1;fillColor=#f8cecc;strokeColor=#b85450;" parent="1" vertex="1">
          <mxGeometry x="120" y="160" width="40" height="40" as="geometry" />
        </mxCell>
        <mxCell id="u06xFt2bz2ASWRlQ6E2f-3" value="" style="rounded=0;whiteSpace=wrap;html=1;fillColor=#f8cecc;strokeColor=#b85450;" parent="1" vertex="1">
          <mxGeometry x="160" y="160" width="40" height="40" as="geometry" />
        </mxCell>
        <mxCell id="u06xFt2bz2ASWRlQ6E2f-4" value="" style="rounded=0;whiteSpace=wrap;html=1;fillColor=#f8cecc;strokeColor=#b85450;" parent="1" vertex="1">
          <mxGeometry x="200" y="160" width="40" height="40" as="geometry" />
        </mxCell>
        <mxCell id="u06xFt2bz2ASWRlQ6E2f-5" value="" style="rounded=0;whiteSpace=wrap;html=1;fillColor=#dae8fc;strokeColor=#6c8ebf;" parent="1" vertex="1">
          <mxGeometry x="120" y="200" width="40" height="40" as="geometry" />
        </mxCell>
        <mxCell id="u06xFt2bz2ASWRlQ6E2f-6" value="" style="rounded=0;whiteSpace=wrap;html=1;fillColor=#dae8fc;strokeColor=#6c8ebf;" parent="1" vertex="1">
          <mxGeometry x="200" y="200" width="40" height="40" as="geometry" />
        </mxCell>
        <mxCell id="u06xFt2bz2ASWRlQ6E2f-7" value="" style="rounded=0;whiteSpace=wrap;html=1;fillColor=#dae8fc;strokeColor=#6c8ebf;" parent="1" vertex="1">
          <mxGeometry x="160" y="200" width="40" height="40" as="geometry" />
        </mxCell>
        <mxCell id="u06xFt2bz2ASWRlQ6E2f-8" value="" style="rounded=0;whiteSpace=wrap;html=1;fillColor=#dae8fc;strokeColor=#6c8ebf;" parent="1" vertex="1">
          <mxGeometry x="120" y="240" width="40" height="40" as="geometry" />
        </mxCell>
        <mxCell id="u06xFt2bz2ASWRlQ6E2f-9" value="" style="rounded=0;whiteSpace=wrap;html=1;fillColor=#dae8fc;strokeColor=#6c8ebf;" parent="1" vertex="1">
          <mxGeometry x="200" y="240" width="40" height="40" as="geometry" />
        </mxCell>
        <mxCell id="u06xFt2bz2ASWRlQ6E2f-10" value="" style="rounded=0;whiteSpace=wrap;html=1;fillColor=#dae8fc;strokeColor=#6c8ebf;" parent="1" vertex="1">
          <mxGeometry x="160" y="240" width="40" height="40" as="geometry" />
        </mxCell>
        <mxCell id="u06xFt2bz2ASWRlQ6E2f-11" value="" style="rounded=0;whiteSpace=wrap;html=1;fillColor=#dae8fc;strokeColor=#6c8ebf;" parent="1" vertex="1">
          <mxGeometry x="120" y="280" width="40" height="40" as="geometry" />
        </mxCell>
        <mxCell id="u06xFt2bz2ASWRlQ6E2f-12" value="" style="rounded=0;whiteSpace=wrap;html=1;fillColor=#dae8fc;strokeColor=#6c8ebf;" parent="1" vertex="1">
          <mxGeometry x="200" y="280" width="40" height="40" as="geometry" />
        </mxCell>
        <mxCell id="u06xFt2bz2ASWRlQ6E2f-13" value="" style="rounded=0;whiteSpace=wrap;html=1;fillColor=#dae8fc;strokeColor=#6c8ebf;" parent="1" vertex="1">
          <mxGeometry x="160" y="280" width="40" height="40" as="geometry" />
        </mxCell>
        <mxCell id="u06xFt2bz2ASWRlQ6E2f-17" value="" style="rounded=0;whiteSpace=wrap;html=1;fillColor=#f8cecc;strokeColor=#b85450;" parent="1" vertex="1">
          <mxGeometry x="300" y="180" width="40" height="40" as="geometry" />
        </mxCell>
        <mxCell id="u06xFt2bz2ASWRlQ6E2f-19" value="" style="rounded=0;whiteSpace=wrap;html=1;fillColor=#f8cecc;strokeColor=#b85450;" parent="1" vertex="1">
          <mxGeometry x="340" y="180" width="40" height="40" as="geometry" />
        </mxCell>
        <mxCell id="u06xFt2bz2ASWRlQ6E2f-20" value="" style="rounded=0;whiteSpace=wrap;html=1;fillColor=#f8cecc;strokeColor=#b85450;" parent="1" vertex="1">
          <mxGeometry x="300" y="220" width="40" height="40" as="geometry" />
        </mxCell>
        <mxCell id="u06xFt2bz2ASWRlQ6E2f-22" value="" style="rounded=0;whiteSpace=wrap;html=1;fillColor=#d5e8d4;strokeColor=#82b366;" parent="1" vertex="1">
          <mxGeometry x="340" y="220" width="40" height="40" as="geometry" />
        </mxCell>
        <mxCell id="u06xFt2bz2ASWRlQ6E2f-23" value="" style="rounded=0;whiteSpace=wrap;html=1;fillColor=#f8cecc;strokeColor=#b85450;" parent="1" vertex="1">
          <mxGeometry x="300" y="260" width="40" height="40" as="geometry" />
        </mxCell>
        <mxCell id="u06xFt2bz2ASWRlQ6E2f-25" value="" style="rounded=0;whiteSpace=wrap;html=1;fillColor=#d5e8d4;strokeColor=#82b366;" parent="1" vertex="1">
          <mxGeometry x="340" y="260" width="40" height="40" as="geometry" />
        </mxCell>
        <mxCell id="u06xFt2bz2ASWRlQ6E2f-34" value="" style="rounded=0;whiteSpace=wrap;html=1;fillColor=#f8cecc;strokeColor=#b85450;" parent="1" vertex="1">
          <mxGeometry x="460" y="160" width="40" height="40" as="geometry" />
        </mxCell>
        <mxCell id="u06xFt2bz2ASWRlQ6E2f-35" value="" style="rounded=0;whiteSpace=wrap;html=1;fillColor=#fff2cc;strokeColor=#d6b656;" parent="1" vertex="1">
          <mxGeometry x="500" y="160" width="40" height="40" as="geometry" />
        </mxCell>
        <mxCell id="u06xFt2bz2ASWRlQ6E2f-37" value="" style="rounded=0;whiteSpace=wrap;html=1;fillColor=#fff2cc;strokeColor=#d6b656;" parent="1" vertex="1">
          <mxGeometry x="460" y="200" width="40" height="40" as="geometry" />
        </mxCell>
        <mxCell id="u06xFt2bz2ASWRlQ6E2f-39" value="" style="rounded=0;whiteSpace=wrap;html=1;fillColor=#fff2cc;strokeColor=#d6b656;" parent="1" vertex="1">
          <mxGeometry x="500" y="200" width="40" height="40" as="geometry" />
        </mxCell>
        <mxCell id="u06xFt2bz2ASWRlQ6E2f-40" value="" style="rounded=0;whiteSpace=wrap;html=1;fillColor=#fff2cc;strokeColor=#d6b656;" parent="1" vertex="1">
          <mxGeometry x="460" y="240" width="40" height="40" as="geometry" />
        </mxCell>
        <mxCell id="u06xFt2bz2ASWRlQ6E2f-42" value="" style="rounded=0;whiteSpace=wrap;html=1;fillColor=#fff2cc;strokeColor=#d6b656;" parent="1" vertex="1">
          <mxGeometry x="500" y="240" width="40" height="40" as="geometry" />
        </mxCell>
        <mxCell id="u06xFt2bz2ASWRlQ6E2f-43" value="" style="rounded=0;whiteSpace=wrap;html=1;fillColor=#fff2cc;strokeColor=#d6b656;" parent="1" vertex="1">
          <mxGeometry x="460" y="280" width="40" height="40" as="geometry" />
        </mxCell>
        <mxCell id="u06xFt2bz2ASWRlQ6E2f-45" value="" style="rounded=0;whiteSpace=wrap;html=1;fillColor=#fff2cc;strokeColor=#d6b656;" parent="1" vertex="1">
          <mxGeometry x="500" y="280" width="40" height="40" as="geometry" />
        </mxCell>
        <mxCell id="u06xFt2bz2ASWRlQ6E2f-47" value="&lt;span style=&quot;font-size: 30px;&quot;&gt;x&lt;/span&gt;" style="text;html=1;strokeColor=none;fillColor=none;align=center;verticalAlign=middle;whiteSpace=wrap;rounded=0;fontSize=30;" parent="1" vertex="1">
          <mxGeometry x="242" y="229" width="60" height="30" as="geometry" />
        </mxCell>
        <mxCell id="u06xFt2bz2ASWRlQ6E2f-48" value="&lt;span style=&quot;font-size: 30px;&quot;&gt;=&lt;/span&gt;" style="text;html=1;strokeColor=none;fillColor=none;align=center;verticalAlign=middle;whiteSpace=wrap;rounded=0;fontSize=30;" parent="1" vertex="1">
          <mxGeometry x="390" y="229" width="60" height="30" as="geometry" />
        </mxCell>
        <mxCell id="u06xFt2bz2ASWRlQ6E2f-86" value="" style="rounded=0;whiteSpace=wrap;html=1;fillColor=#dae8fc;strokeColor=#6c8ebf;" parent="1" vertex="1">
          <mxGeometry x="100" y="520" width="40" height="40" as="geometry" />
        </mxCell>
        <mxCell id="u06xFt2bz2ASWRlQ6E2f-87" value="" style="rounded=0;whiteSpace=wrap;html=1;fillColor=#dae8fc;strokeColor=#6c8ebf;" parent="1" vertex="1">
          <mxGeometry x="180" y="520" width="40" height="40" as="geometry" />
        </mxCell>
        <mxCell id="u06xFt2bz2ASWRlQ6E2f-88" value="" style="rounded=0;whiteSpace=wrap;html=1;fillColor=#dae8fc;strokeColor=#6c8ebf;" parent="1" vertex="1">
          <mxGeometry x="140" y="520" width="40" height="40" as="geometry" />
        </mxCell>
        <mxCell id="u06xFt2bz2ASWRlQ6E2f-89" value="a31" style="rounded=0;whiteSpace=wrap;html=1;fillColor=#1ba1e2;strokeColor=#006EAF;fontColor=#ffffff;" parent="1" vertex="1">
          <mxGeometry x="100" y="560" width="40" height="40" as="geometry" />
        </mxCell>
        <mxCell id="u06xFt2bz2ASWRlQ6E2f-90" value="a33" style="rounded=0;whiteSpace=wrap;html=1;fillColor=#1ba1e2;strokeColor=#006EAF;fontColor=#ffffff;" parent="1" vertex="1">
          <mxGeometry x="180" y="560" width="40" height="40" as="geometry" />
        </mxCell>
        <mxCell id="u06xFt2bz2ASWRlQ6E2f-91" value="a32" style="rounded=0;whiteSpace=wrap;html=1;fillColor=#1ba1e2;strokeColor=#006EAF;fontColor=#ffffff;" parent="1" vertex="1">
          <mxGeometry x="140" y="560" width="40" height="40" as="geometry" />
        </mxCell>
        <mxCell id="u06xFt2bz2ASWRlQ6E2f-92" value="" style="rounded=0;whiteSpace=wrap;html=1;fillColor=#dae8fc;strokeColor=#6c8ebf;" parent="1" vertex="1">
          <mxGeometry x="100" y="600" width="40" height="40" as="geometry" />
        </mxCell>
        <mxCell id="u06xFt2bz2ASWRlQ6E2f-93" value="" style="rounded=0;whiteSpace=wrap;html=1;fillColor=#dae8fc;strokeColor=#6c8ebf;" parent="1" vertex="1">
          <mxGeometry x="180" y="600" width="40" height="40" as="geometry" />
        </mxCell>
        <mxCell id="u06xFt2bz2ASWRlQ6E2f-94" value="" style="rounded=0;whiteSpace=wrap;html=1;fillColor=#dae8fc;strokeColor=#6c8ebf;" parent="1" vertex="1">
          <mxGeometry x="140" y="600" width="40" height="40" as="geometry" />
        </mxCell>
        <mxCell id="u06xFt2bz2ASWRlQ6E2f-95" value="" style="rounded=0;whiteSpace=wrap;html=1;fillColor=#d5e8d4;strokeColor=#82b366;" parent="1" vertex="1">
          <mxGeometry x="280" y="500" width="40" height="40" as="geometry" />
        </mxCell>
        <mxCell id="u06xFt2bz2ASWRlQ6E2f-96" value="b12" style="rounded=0;whiteSpace=wrap;html=1;fillColor=#60a917;strokeColor=#2D7600;fontColor=#ffffff;" parent="1" vertex="1">
          <mxGeometry x="320" y="500" width="40" height="40" as="geometry" />
        </mxCell>
        <mxCell id="u06xFt2bz2ASWRlQ6E2f-97" value="" style="rounded=0;whiteSpace=wrap;html=1;fillColor=#d5e8d4;strokeColor=#82b366;" parent="1" vertex="1">
          <mxGeometry x="280" y="540" width="40" height="40" as="geometry" />
        </mxCell>
        <mxCell id="u06xFt2bz2ASWRlQ6E2f-98" value="b22" style="rounded=0;whiteSpace=wrap;html=1;fillColor=#60a917;strokeColor=#2D7600;fontColor=#ffffff;" parent="1" vertex="1">
          <mxGeometry x="320" y="540" width="40" height="40" as="geometry" />
        </mxCell>
        <mxCell id="u06xFt2bz2ASWRlQ6E2f-99" value="" style="rounded=0;whiteSpace=wrap;html=1;fillColor=#d5e8d4;strokeColor=#82b366;" parent="1" vertex="1">
          <mxGeometry x="280" y="580" width="40" height="40" as="geometry" />
        </mxCell>
        <mxCell id="u06xFt2bz2ASWRlQ6E2f-100" value="b23" style="rounded=0;whiteSpace=wrap;html=1;fillColor=#60a917;strokeColor=#2D7600;fontColor=#ffffff;" parent="1" vertex="1">
          <mxGeometry x="320" y="580" width="40" height="40" as="geometry" />
        </mxCell>
        <mxCell id="u06xFt2bz2ASWRlQ6E2f-101" value="" style="rounded=0;whiteSpace=wrap;html=1;fillColor=#fff2cc;strokeColor=#d6b656;" parent="1" vertex="1">
          <mxGeometry x="440" y="480" width="40" height="40" as="geometry" />
        </mxCell>
        <mxCell id="u06xFt2bz2ASWRlQ6E2f-102" value="" style="rounded=0;whiteSpace=wrap;html=1;fillColor=#fff2cc;strokeColor=#d6b656;" parent="1" vertex="1">
          <mxGeometry x="480" y="480" width="40" height="40" as="geometry" />
        </mxCell>
        <mxCell id="u06xFt2bz2ASWRlQ6E2f-103" value="" style="rounded=0;whiteSpace=wrap;html=1;fillColor=#fff2cc;strokeColor=#d6b656;" parent="1" vertex="1">
          <mxGeometry x="440" y="520" width="40" height="40" as="geometry" />
        </mxCell>
        <mxCell id="u06xFt2bz2ASWRlQ6E2f-104" value="" style="rounded=0;whiteSpace=wrap;html=1;fillColor=#fff2cc;strokeColor=#d6b656;" parent="1" vertex="1">
          <mxGeometry x="480" y="520" width="40" height="40" as="geometry" />
        </mxCell>
        <mxCell id="u06xFt2bz2ASWRlQ6E2f-105" value="" style="rounded=0;whiteSpace=wrap;html=1;fillColor=#fff2cc;strokeColor=#d6b656;" parent="1" vertex="1">
          <mxGeometry x="440" y="560" width="40" height="40" as="geometry" />
        </mxCell>
        <mxCell id="u06xFt2bz2ASWRlQ6E2f-106" value="c32" style="rounded=0;whiteSpace=wrap;html=1;fillColor=#e3c800;strokeColor=#B09500;fontColor=#000000;" parent="1" vertex="1">
          <mxGeometry x="480" y="560" width="40" height="40" as="geometry" />
        </mxCell>
        <mxCell id="u06xFt2bz2ASWRlQ6E2f-107" value="" style="rounded=0;whiteSpace=wrap;html=1;fillColor=#fff2cc;strokeColor=#d6b656;" parent="1" vertex="1">
          <mxGeometry x="440" y="600" width="40" height="40" as="geometry" />
        </mxCell>
        <mxCell id="u06xFt2bz2ASWRlQ6E2f-108" value="" style="rounded=0;whiteSpace=wrap;html=1;fillColor=#fff2cc;strokeColor=#d6b656;" parent="1" vertex="1">
          <mxGeometry x="480" y="600" width="40" height="40" as="geometry" />
        </mxCell>
        <mxCell id="u06xFt2bz2ASWRlQ6E2f-109" value="&lt;span style=&quot;font-size: 30px;&quot;&gt;x&lt;/span&gt;" style="text;html=1;strokeColor=none;fillColor=none;align=center;verticalAlign=middle;whiteSpace=wrap;rounded=0;fontSize=30;" parent="1" vertex="1">
          <mxGeometry x="222" y="549" width="60" height="30" as="geometry" />
        </mxCell>
        <mxCell id="u06xFt2bz2ASWRlQ6E2f-110" value="&lt;span style=&quot;font-size: 30px;&quot;&gt;=&lt;/span&gt;" style="text;html=1;strokeColor=none;fillColor=none;align=center;verticalAlign=middle;whiteSpace=wrap;rounded=0;fontSize=30;" parent="1" vertex="1">
          <mxGeometry x="370" y="549" width="60" height="30" as="geometry" />
        </mxCell>
        <mxCell id="u06xFt2bz2ASWRlQ6E2f-111" value="c32" style="rounded=0;whiteSpace=wrap;html=1;fillColor=#e3c800;strokeColor=#B09500;fontColor=#000000;" parent="1" vertex="1">
          <mxGeometry x="500" y="700" width="40" height="40" as="geometry" />
        </mxCell>
        <mxCell id="u06xFt2bz2ASWRlQ6E2f-112" value="a31" style="rounded=0;whiteSpace=wrap;html=1;fillColor=#1ba1e2;strokeColor=#006EAF;fontColor=#ffffff;" parent="1" vertex="1">
          <mxGeometry x="82" y="701" width="40" height="40" as="geometry" />
        </mxCell>
        <mxCell id="u06xFt2bz2ASWRlQ6E2f-113" value="b12" style="rounded=0;whiteSpace=wrap;html=1;fillColor=#60a917;strokeColor=#2D7600;fontColor=#ffffff;" parent="1" vertex="1">
          <mxGeometry x="138" y="701" width="40" height="40" as="geometry" />
        </mxCell>
        <mxCell id="u06xFt2bz2ASWRlQ6E2f-114" value="a32" style="rounded=0;whiteSpace=wrap;html=1;fillColor=#1ba1e2;strokeColor=#006EAF;fontColor=#ffffff;" parent="1" vertex="1">
          <mxGeometry x="222" y="701" width="40" height="40" as="geometry" />
        </mxCell>
        <mxCell id="u06xFt2bz2ASWRlQ6E2f-115" value="b22" style="rounded=0;whiteSpace=wrap;html=1;fillColor=#60a917;strokeColor=#2D7600;fontColor=#ffffff;" parent="1" vertex="1">
          <mxGeometry x="278" y="700" width="40" height="40" as="geometry" />
        </mxCell>
        <mxCell id="u06xFt2bz2ASWRlQ6E2f-116" value="a33" style="rounded=0;whiteSpace=wrap;html=1;fillColor=#1ba1e2;strokeColor=#006EAF;fontColor=#ffffff;" parent="1" vertex="1">
          <mxGeometry x="362" y="700" width="40" height="40" as="geometry" />
        </mxCell>
        <mxCell id="u06xFt2bz2ASWRlQ6E2f-117" value="b23" style="rounded=0;whiteSpace=wrap;html=1;fillColor=#60a917;strokeColor=#2D7600;fontColor=#ffffff;" parent="1" vertex="1">
          <mxGeometry x="418" y="701" width="40" height="40" as="geometry" />
        </mxCell>
        <mxCell id="u06xFt2bz2ASWRlQ6E2f-118" value="&lt;font color=&quot;#000000&quot; style=&quot;font-size: 30px&quot;&gt;*&lt;/font&gt;" style="text;html=1;align=center;verticalAlign=middle;resizable=0;points=[];autosize=1;strokeColor=none;fillColor=none;fontSize=20;fontColor=#808080;" parent="1" vertex="1">
          <mxGeometry x="115" y="710" width="30" height="30" as="geometry" />
        </mxCell>
        <mxCell id="u06xFt2bz2ASWRlQ6E2f-119" value="&lt;font color=&quot;#000000&quot; style=&quot;font-size: 30px&quot;&gt;*&lt;/font&gt;" style="text;html=1;align=center;verticalAlign=middle;resizable=0;points=[];autosize=1;strokeColor=none;fillColor=none;fontSize=20;fontColor=#808080;" parent="1" vertex="1">
          <mxGeometry x="255" y="710" width="30" height="30" as="geometry" />
        </mxCell>
        <mxCell id="u06xFt2bz2ASWRlQ6E2f-120" value="&lt;font color=&quot;#000000&quot; style=&quot;font-size: 30px&quot;&gt;*&lt;/font&gt;" style="text;html=1;align=center;verticalAlign=middle;resizable=0;points=[];autosize=1;strokeColor=none;fillColor=none;fontSize=20;fontColor=#808080;" parent="1" vertex="1">
          <mxGeometry x="394" y="710" width="30" height="30" as="geometry" />
        </mxCell>
        <mxCell id="u06xFt2bz2ASWRlQ6E2f-121" value="&lt;font color=&quot;#000000&quot; style=&quot;font-size: 30px&quot;&gt;+&lt;/font&gt;" style="text;html=1;align=center;verticalAlign=middle;resizable=0;points=[];autosize=1;strokeColor=none;fillColor=none;fontSize=20;fontColor=#808080;" parent="1" vertex="1">
          <mxGeometry x="185" y="703" width="30" height="30" as="geometry" />
        </mxCell>
        <mxCell id="u06xFt2bz2ASWRlQ6E2f-122" value="&lt;font color=&quot;#000000&quot; style=&quot;font-size: 30px&quot;&gt;+&lt;/font&gt;" style="text;html=1;align=center;verticalAlign=middle;resizable=0;points=[];autosize=1;strokeColor=none;fillColor=none;fontSize=20;fontColor=#808080;" parent="1" vertex="1">
          <mxGeometry x="325" y="703" width="30" height="30" as="geometry" />
        </mxCell>
        <mxCell id="u06xFt2bz2ASWRlQ6E2f-123" value="&lt;font color=&quot;#000000&quot; style=&quot;font-size: 30px&quot;&gt;=&lt;/font&gt;" style="text;html=1;align=center;verticalAlign=middle;resizable=0;points=[];autosize=1;strokeColor=none;fillColor=none;fontSize=20;fontColor=#808080;" parent="1" vertex="1">
          <mxGeometry x="465" y="703" width="30" height="30" as="geometry" />
        </mxCell>
        <mxCell id="u06xFt2bz2ASWRlQ6E2f-124" value="" style="rounded=0;whiteSpace=wrap;html=1;fillColor=#dae8fc;strokeColor=#6c8ebf;" parent="1" vertex="1">
          <mxGeometry x="100" y="480" width="40" height="40" as="geometry" />
        </mxCell>
        <mxCell id="u06xFt2bz2ASWRlQ6E2f-125" value="" style="rounded=0;whiteSpace=wrap;html=1;fillColor=#dae8fc;strokeColor=#6c8ebf;" parent="1" vertex="1">
          <mxGeometry x="140" y="480" width="40" height="40" as="geometry" />
        </mxCell>
        <mxCell id="u06xFt2bz2ASWRlQ6E2f-126" value="" style="rounded=0;whiteSpace=wrap;html=1;fillColor=#dae8fc;strokeColor=#6c8ebf;" parent="1" vertex="1">
          <mxGeometry x="180" y="480" width="40" height="40" as="geometry" />
        </mxCell>
        <mxCell id="-JClceiU5e3XDUTstzo8-1" value="" style="rounded=0;whiteSpace=wrap;html=1;fillColor=#dae8fc;strokeColor=#6c8ebf;" vertex="1" parent="1">
          <mxGeometry x="110" y="1000" width="40" height="40" as="geometry" />
        </mxCell>
        <mxCell id="-JClceiU5e3XDUTstzo8-2" value="" style="rounded=0;whiteSpace=wrap;html=1;fillColor=#dae8fc;strokeColor=#6c8ebf;" vertex="1" parent="1">
          <mxGeometry x="190" y="1000" width="40" height="40" as="geometry" />
        </mxCell>
        <mxCell id="-JClceiU5e3XDUTstzo8-3" value="" style="rounded=0;whiteSpace=wrap;html=1;fillColor=#dae8fc;strokeColor=#6c8ebf;" vertex="1" parent="1">
          <mxGeometry x="150" y="1000" width="40" height="40" as="geometry" />
        </mxCell>
        <mxCell id="-JClceiU5e3XDUTstzo8-10" value="" style="rounded=0;whiteSpace=wrap;html=1;fillColor=#d5e8d4;strokeColor=#82b366;" vertex="1" parent="1">
          <mxGeometry x="290" y="920" width="40" height="40" as="geometry" />
        </mxCell>
        <mxCell id="-JClceiU5e3XDUTstzo8-11" value="b12" style="rounded=0;whiteSpace=wrap;html=1;fillColor=#60a917;strokeColor=#2D7600;fontColor=#ffffff;" vertex="1" parent="1">
          <mxGeometry x="330" y="920" width="40" height="40" as="geometry" />
        </mxCell>
        <mxCell id="-JClceiU5e3XDUTstzo8-12" value="" style="rounded=0;whiteSpace=wrap;html=1;fillColor=#d5e8d4;strokeColor=#82b366;" vertex="1" parent="1">
          <mxGeometry x="290" y="960" width="40" height="40" as="geometry" />
        </mxCell>
        <mxCell id="-JClceiU5e3XDUTstzo8-13" value="b22" style="rounded=0;whiteSpace=wrap;html=1;fillColor=#60a917;strokeColor=#2D7600;fontColor=#ffffff;" vertex="1" parent="1">
          <mxGeometry x="330" y="960" width="40" height="40" as="geometry" />
        </mxCell>
        <mxCell id="-JClceiU5e3XDUTstzo8-14" value="" style="rounded=0;whiteSpace=wrap;html=1;fillColor=#d5e8d4;strokeColor=#82b366;" vertex="1" parent="1">
          <mxGeometry x="290" y="1000" width="40" height="40" as="geometry" />
        </mxCell>
        <mxCell id="-JClceiU5e3XDUTstzo8-15" value="b23" style="rounded=0;whiteSpace=wrap;html=1;fillColor=#60a917;strokeColor=#2D7600;fontColor=#ffffff;" vertex="1" parent="1">
          <mxGeometry x="330" y="1000" width="40" height="40" as="geometry" />
        </mxCell>
        <mxCell id="-JClceiU5e3XDUTstzo8-16" value="" style="rounded=0;whiteSpace=wrap;html=1;fillColor=#fff2cc;strokeColor=#d6b656;" vertex="1" parent="1">
          <mxGeometry x="450" y="920" width="40" height="40" as="geometry" />
        </mxCell>
        <mxCell id="-JClceiU5e3XDUTstzo8-17" value="" style="rounded=0;whiteSpace=wrap;html=1;fillColor=#fff2cc;strokeColor=#d6b656;" vertex="1" parent="1">
          <mxGeometry x="490" y="920" width="40" height="40" as="geometry" />
        </mxCell>
        <mxCell id="-JClceiU5e3XDUTstzo8-18" value="" style="rounded=0;whiteSpace=wrap;html=1;fillColor=#fff2cc;strokeColor=#d6b656;" vertex="1" parent="1">
          <mxGeometry x="450" y="960" width="40" height="40" as="geometry" />
        </mxCell>
        <mxCell id="-JClceiU5e3XDUTstzo8-19" value="c22" style="rounded=0;whiteSpace=wrap;html=1;fillColor=#e3c800;strokeColor=#B09500;fontColor=#000000;" vertex="1" parent="1">
          <mxGeometry x="490" y="960" width="40" height="40" as="geometry" />
        </mxCell>
        <mxCell id="-JClceiU5e3XDUTstzo8-20" value="" style="rounded=0;whiteSpace=wrap;html=1;fillColor=#fff2cc;strokeColor=#d6b656;" vertex="1" parent="1">
          <mxGeometry x="450" y="1000" width="40" height="40" as="geometry" />
        </mxCell>
        <mxCell id="-JClceiU5e3XDUTstzo8-21" value="" style="rounded=0;whiteSpace=wrap;html=1;fillColor=#fff2cc;strokeColor=#d6b656;" vertex="1" parent="1">
          <mxGeometry x="490" y="1000" width="40" height="40" as="geometry" />
        </mxCell>
        <mxCell id="-JClceiU5e3XDUTstzo8-24" value="&lt;span style=&quot;font-size: 30px;&quot;&gt;x&lt;/span&gt;" style="text;html=1;strokeColor=none;fillColor=none;align=center;verticalAlign=middle;whiteSpace=wrap;rounded=0;fontSize=30;" vertex="1" parent="1">
          <mxGeometry x="232" y="969" width="60" height="30" as="geometry" />
        </mxCell>
        <mxCell id="-JClceiU5e3XDUTstzo8-25" value="&lt;span style=&quot;font-size: 30px;&quot;&gt;=&lt;/span&gt;" style="text;html=1;strokeColor=none;fillColor=none;align=center;verticalAlign=middle;whiteSpace=wrap;rounded=0;fontSize=30;" vertex="1" parent="1">
          <mxGeometry x="380" y="969" width="60" height="30" as="geometry" />
        </mxCell>
        <mxCell id="-JClceiU5e3XDUTstzo8-26" value="c32" style="rounded=0;whiteSpace=wrap;html=1;fillColor=#e3c800;strokeColor=#B09500;fontColor=#000000;" vertex="1" parent="1">
          <mxGeometry x="510" y="1069" width="40" height="40" as="geometry" />
        </mxCell>
        <mxCell id="-JClceiU5e3XDUTstzo8-27" value="a21" style="rounded=0;whiteSpace=wrap;html=1;fillColor=#1ba1e2;strokeColor=#006EAF;fontColor=#ffffff;" vertex="1" parent="1">
          <mxGeometry x="92" y="1070" width="40" height="40" as="geometry" />
        </mxCell>
        <mxCell id="-JClceiU5e3XDUTstzo8-28" value="b12" style="rounded=0;whiteSpace=wrap;html=1;fillColor=#60a917;strokeColor=#2D7600;fontColor=#ffffff;" vertex="1" parent="1">
          <mxGeometry x="148" y="1070" width="40" height="40" as="geometry" />
        </mxCell>
        <mxCell id="-JClceiU5e3XDUTstzo8-29" value="a22" style="rounded=0;whiteSpace=wrap;html=1;fillColor=#1ba1e2;strokeColor=#006EAF;fontColor=#ffffff;" vertex="1" parent="1">
          <mxGeometry x="232" y="1070" width="40" height="40" as="geometry" />
        </mxCell>
        <mxCell id="-JClceiU5e3XDUTstzo8-30" value="b22" style="rounded=0;whiteSpace=wrap;html=1;fillColor=#60a917;strokeColor=#2D7600;fontColor=#ffffff;" vertex="1" parent="1">
          <mxGeometry x="288" y="1069" width="40" height="40" as="geometry" />
        </mxCell>
        <mxCell id="-JClceiU5e3XDUTstzo8-31" value="a23" style="rounded=0;whiteSpace=wrap;html=1;fillColor=#1ba1e2;strokeColor=#006EAF;fontColor=#ffffff;" vertex="1" parent="1">
          <mxGeometry x="372" y="1069" width="40" height="40" as="geometry" />
        </mxCell>
        <mxCell id="-JClceiU5e3XDUTstzo8-32" value="b23" style="rounded=0;whiteSpace=wrap;html=1;fillColor=#60a917;strokeColor=#2D7600;fontColor=#ffffff;" vertex="1" parent="1">
          <mxGeometry x="428" y="1070" width="40" height="40" as="geometry" />
        </mxCell>
        <mxCell id="-JClceiU5e3XDUTstzo8-33" value="&lt;font color=&quot;#000000&quot; style=&quot;font-size: 30px&quot;&gt;*&lt;/font&gt;" style="text;html=1;align=center;verticalAlign=middle;resizable=0;points=[];autosize=1;strokeColor=none;fillColor=none;fontSize=20;fontColor=#808080;" vertex="1" parent="1">
          <mxGeometry x="125" y="1079" width="30" height="30" as="geometry" />
        </mxCell>
        <mxCell id="-JClceiU5e3XDUTstzo8-34" value="&lt;font color=&quot;#000000&quot; style=&quot;font-size: 30px&quot;&gt;*&lt;/font&gt;" style="text;html=1;align=center;verticalAlign=middle;resizable=0;points=[];autosize=1;strokeColor=none;fillColor=none;fontSize=20;fontColor=#808080;" vertex="1" parent="1">
          <mxGeometry x="265" y="1079" width="30" height="30" as="geometry" />
        </mxCell>
        <mxCell id="-JClceiU5e3XDUTstzo8-35" value="&lt;font color=&quot;#000000&quot; style=&quot;font-size: 30px&quot;&gt;*&lt;/font&gt;" style="text;html=1;align=center;verticalAlign=middle;resizable=0;points=[];autosize=1;strokeColor=none;fillColor=none;fontSize=20;fontColor=#808080;" vertex="1" parent="1">
          <mxGeometry x="404" y="1079" width="30" height="30" as="geometry" />
        </mxCell>
        <mxCell id="-JClceiU5e3XDUTstzo8-36" value="&lt;font color=&quot;#000000&quot; style=&quot;font-size: 30px&quot;&gt;+&lt;/font&gt;" style="text;html=1;align=center;verticalAlign=middle;resizable=0;points=[];autosize=1;strokeColor=none;fillColor=none;fontSize=20;fontColor=#808080;" vertex="1" parent="1">
          <mxGeometry x="195" y="1072" width="30" height="30" as="geometry" />
        </mxCell>
        <mxCell id="-JClceiU5e3XDUTstzo8-37" value="&lt;font color=&quot;#000000&quot; style=&quot;font-size: 30px&quot;&gt;+&lt;/font&gt;" style="text;html=1;align=center;verticalAlign=middle;resizable=0;points=[];autosize=1;strokeColor=none;fillColor=none;fontSize=20;fontColor=#808080;" vertex="1" parent="1">
          <mxGeometry x="335" y="1072" width="30" height="30" as="geometry" />
        </mxCell>
        <mxCell id="-JClceiU5e3XDUTstzo8-38" value="&lt;font color=&quot;#000000&quot; style=&quot;font-size: 30px&quot;&gt;=&lt;/font&gt;" style="text;html=1;align=center;verticalAlign=middle;resizable=0;points=[];autosize=1;strokeColor=none;fillColor=none;fontSize=20;fontColor=#808080;" vertex="1" parent="1">
          <mxGeometry x="475" y="1072" width="30" height="30" as="geometry" />
        </mxCell>
        <mxCell id="-JClceiU5e3XDUTstzo8-39" value="" style="rounded=0;whiteSpace=wrap;html=1;fillColor=#dae8fc;strokeColor=#6c8ebf;" vertex="1" parent="1">
          <mxGeometry x="110" y="920" width="40" height="40" as="geometry" />
        </mxCell>
        <mxCell id="-JClceiU5e3XDUTstzo8-40" value="" style="rounded=0;whiteSpace=wrap;html=1;fillColor=#dae8fc;strokeColor=#6c8ebf;" vertex="1" parent="1">
          <mxGeometry x="150" y="920" width="40" height="40" as="geometry" />
        </mxCell>
        <mxCell id="-JClceiU5e3XDUTstzo8-41" value="" style="rounded=0;whiteSpace=wrap;html=1;fillColor=#dae8fc;strokeColor=#6c8ebf;" vertex="1" parent="1">
          <mxGeometry x="190" y="920" width="40" height="40" as="geometry" />
        </mxCell>
        <mxCell id="-JClceiU5e3XDUTstzo8-42" value="a21" style="rounded=0;whiteSpace=wrap;html=1;fillColor=#1ba1e2;strokeColor=#006EAF;fontColor=#ffffff;" vertex="1" parent="1">
          <mxGeometry x="110" y="960" width="40" height="40" as="geometry" />
        </mxCell>
        <mxCell id="-JClceiU5e3XDUTstzo8-43" value="a23" style="rounded=0;whiteSpace=wrap;html=1;fillColor=#1ba1e2;strokeColor=#006EAF;fontColor=#ffffff;" vertex="1" parent="1">
          <mxGeometry x="190" y="960" width="40" height="40" as="geometry" />
        </mxCell>
        <mxCell id="-JClceiU5e3XDUTstzo8-44" value="a22" style="rounded=0;whiteSpace=wrap;html=1;fillColor=#1ba1e2;strokeColor=#006EAF;fontColor=#ffffff;" vertex="1" parent="1">
          <mxGeometry x="150" y="960" width="40" height="40" as="geometry" />
        </mxCell>
        <mxCell id="-JClceiU5e3XDUTstzo8-45" value="c32" style="rounded=0;whiteSpace=wrap;html=1;fillColor=#e3c800;strokeColor=#B09500;fontColor=#000000;" vertex="1" parent="1">
          <mxGeometry x="510" y="1129" width="40" height="40" as="geometry" />
        </mxCell>
        <mxCell id="-JClceiU5e3XDUTstzo8-46" value="1" style="rounded=0;whiteSpace=wrap;html=1;" vertex="1" parent="1">
          <mxGeometry x="92" y="1130" width="40" height="40" as="geometry" />
        </mxCell>
        <mxCell id="-JClceiU5e3XDUTstzo8-47" value="b12" style="rounded=0;whiteSpace=wrap;html=1;fillColor=#60a917;strokeColor=#2D7600;fontColor=#ffffff;" vertex="1" parent="1">
          <mxGeometry x="148" y="1130" width="40" height="40" as="geometry" />
        </mxCell>
        <mxCell id="-JClceiU5e3XDUTstzo8-48" value="1" style="rounded=0;whiteSpace=wrap;html=1;" vertex="1" parent="1">
          <mxGeometry x="232" y="1130" width="40" height="40" as="geometry" />
        </mxCell>
        <mxCell id="-JClceiU5e3XDUTstzo8-49" value="b22" style="rounded=0;whiteSpace=wrap;html=1;fillColor=#60a917;strokeColor=#2D7600;fontColor=#ffffff;" vertex="1" parent="1">
          <mxGeometry x="288" y="1129" width="40" height="40" as="geometry" />
        </mxCell>
        <mxCell id="-JClceiU5e3XDUTstzo8-50" value="0" style="rounded=0;whiteSpace=wrap;html=1;" vertex="1" parent="1">
          <mxGeometry x="372" y="1129" width="40" height="40" as="geometry" />
        </mxCell>
        <mxCell id="-JClceiU5e3XDUTstzo8-51" value="b23" style="rounded=0;whiteSpace=wrap;html=1;fillColor=#60a917;strokeColor=#2D7600;fontColor=#ffffff;" vertex="1" parent="1">
          <mxGeometry x="428" y="1130" width="40" height="40" as="geometry" />
        </mxCell>
        <mxCell id="-JClceiU5e3XDUTstzo8-52" value="&lt;font color=&quot;#000000&quot; style=&quot;font-size: 30px&quot;&gt;*&lt;/font&gt;" style="text;html=1;align=center;verticalAlign=middle;resizable=0;points=[];autosize=1;strokeColor=none;fillColor=none;fontSize=20;fontColor=#808080;" vertex="1" parent="1">
          <mxGeometry x="125" y="1139" width="30" height="30" as="geometry" />
        </mxCell>
        <mxCell id="-JClceiU5e3XDUTstzo8-53" value="&lt;font color=&quot;#000000&quot; style=&quot;font-size: 30px&quot;&gt;*&lt;/font&gt;" style="text;html=1;align=center;verticalAlign=middle;resizable=0;points=[];autosize=1;strokeColor=none;fillColor=none;fontSize=20;fontColor=#808080;" vertex="1" parent="1">
          <mxGeometry x="265" y="1139" width="30" height="30" as="geometry" />
        </mxCell>
        <mxCell id="-JClceiU5e3XDUTstzo8-54" value="&lt;font color=&quot;#000000&quot; style=&quot;font-size: 30px&quot;&gt;*&lt;/font&gt;" style="text;html=1;align=center;verticalAlign=middle;resizable=0;points=[];autosize=1;strokeColor=none;fillColor=none;fontSize=20;fontColor=#808080;" vertex="1" parent="1">
          <mxGeometry x="404" y="1139" width="30" height="30" as="geometry" />
        </mxCell>
        <mxCell id="-JClceiU5e3XDUTstzo8-55" value="&lt;font color=&quot;#000000&quot; style=&quot;font-size: 30px&quot;&gt;+&lt;/font&gt;" style="text;html=1;align=center;verticalAlign=middle;resizable=0;points=[];autosize=1;strokeColor=none;fillColor=none;fontSize=20;fontColor=#808080;" vertex="1" parent="1">
          <mxGeometry x="195" y="1132" width="30" height="30" as="geometry" />
        </mxCell>
        <mxCell id="-JClceiU5e3XDUTstzo8-56" value="&lt;font color=&quot;#000000&quot; style=&quot;font-size: 30px&quot;&gt;+&lt;/font&gt;" style="text;html=1;align=center;verticalAlign=middle;resizable=0;points=[];autosize=1;strokeColor=none;fillColor=none;fontSize=20;fontColor=#808080;" vertex="1" parent="1">
          <mxGeometry x="335" y="1132" width="30" height="30" as="geometry" />
        </mxCell>
        <mxCell id="-JClceiU5e3XDUTstzo8-57" value="&lt;font color=&quot;#000000&quot; style=&quot;font-size: 30px&quot;&gt;=&lt;/font&gt;" style="text;html=1;align=center;verticalAlign=middle;resizable=0;points=[];autosize=1;strokeColor=none;fillColor=none;fontSize=20;fontColor=#808080;" vertex="1" parent="1">
          <mxGeometry x="475" y="1132" width="30" height="30" as="geometry" />
        </mxCell>
      </root>
    </mxGraphModel>
  </diagram>
</mxfile>
